<?xml version="1.0" standalone="no"?><!DOCTYPE svg PUBLIC "-//W3C//DTD SVG 1.1//EN" "http://www.w3.org/Graphics/SVG/1.1/DTD/svg11.dtd"><svg t="1623855479252" class="icon" viewBox="0 0 1359 1024" version="1.1" xmlns="http://www.w3.org/2000/svg" p-id="2464" xmlns:xlink="http://www.w3.org/1999/xlink" width="265.4296875" height="200"><defs><style type="text/css"></style></defs><path d="M900.975 563.02v-61.272h61.513v20.504h41.008v-72.367h-102.52V358.46h194.427v-51.38H940.777v-51.14h247.015V51.14h-41.008V0H757.688v51.14h-41.009v307.32h-41.25v51.622h-72.367v50.658h-82.016v51.14h-41.008v51.14h-90.942v-51.14h-51.381v-51.14h-41.008V358.46h-50.899v286.576h51.14v51.14h51.14v51.621h51.14v51.14h51.139v30.636h30.636V1024h92.148v-41.008h-50.899V931.61h41.008v-51.14h51.14v-51.14h51.14v51.14h41.008v143.288h92.148V982.75h-50.899V798.696h51.14v-50.899h51.14V645.036h51.14v-82.017z m-41.008-440.236a10.131 10.131 0 0 1-10.131 10.131h-29.671a10.131 10.131 0 0 1-10.132-10.131V92.148a10.131 10.131 0 0 1 10.132-10.132H850.8a10.131 10.131 0 0 1 10.132 10.132z m10.373 697.38h488.963V850.8H870.34z m-870.34 0h399.227V850.8H0z m348.088 163.793h51.14v29.188h-51.14zM0 982.992h102.28v30.153H0z m153.66-72.368h102.28v30.153H153.66z m820.165 0h51.14v30.153h-52.346z m-2.412 72.368h102.28v30.153H970.206v-30.153z m153.66-72.368h102.28v30.153h-103.486z" fill="#BFBFBF" p-id="2465"></path></svg>